<?xml version="1.0" encoding="utf-8"?>
<!-- Generator: Adobe Illustrator 26.0.2, SVG Export Plug-In . SVG Version: 6.00 Build 0)  -->
<svg version="1.1" id="Layer_1" xmlns="http://www.w3.org/2000/svg" xmlns:xlink="http://www.w3.org/1999/xlink" x="0px" y="0px"
	 viewBox="0 0 181.9 70.7" style="enable-background:new 0 0 181.9 70.7;" xml:space="preserve">
<style type="text/css">
	.st0{display:none;}
	.st1{display:inline;fill:#F6F6F6;}
	.st2{fill:#FFFFFF;}
</style>
<g id="Background" class="st0">
	<rect x="-14.3" y="-14.5" class="st1" width="209.2" height="99.7"/>
</g>
<g id="Logo">
	<path class="st2" d="M177.3,0c-2.5,0-4.6,2.1-4.6,4.6c0,2.5,2.1,4.6,4.6,4.6c2.5,0,4.6-2.1,4.6-4.6S179.9,0,177.3,0 M177.3,8.2
		c-2,0-3.6-1.6-3.6-3.6c0-2,1.6-3.6,3.6-3.6c2,0,3.6,1.6,3.6,3.6S179.3,8.2,177.3,8.2"/>
	<path class="st2" d="M177.8,2.2H176v4.9h0.9V5.3h0.9v1.7h0.9V5.4c0-0.2-0.1-0.3-0.1-0.5c0.1-0.1,0.1-0.3,0.1-0.5V3.1
		C178.7,2.6,178.3,2.2,177.8,2.2 M177.8,3.1v1.3h-0.9V3.1L177.8,3.1L177.8,3.1z"/>
	<path class="st2" d="M55,12.7H44.7c-5.8,0-10.4,4.6-10.4,10.4v37.3h10.4V23h8.1c0.5-1.9,1.2-3.7,2.3-5.3"/>
	<path class="st2" d="M20.7,12.7H0v58h10.4V60.3h10.4c5.7,0,10.4-4.6,10.4-10.4V23C31.1,17.3,26.5,12.7,20.7,12.7 M20.7,27.2V50
		H10.4V23h10.4V27.2z"/>
	<path class="st2" d="M86.1,27c-0.2-8.4-7.1-15.2-15.5-15.2c-8.4,0-15.4,6.8-15.5,15.2h0v0.1c0,6.2,0,12.3,0,18.5V46h0
		c0.2,8.4,7.1,15.2,15.5,15.2C79,61.2,86,54.4,86.1,46h0v-0.3C86.1,39.5,86.1,33.3,86.1,27L86.1,27 M75.8,23v4c0,6.3,0,12.6,0,18.9
		v4H65.4v-4c0-6.3,0-12.6,0-18.9v-4C65.4,23,75.8,23,75.8,23z"/>
	<g>
		<path class="st2" d="M169.6,12.7l-8.9,23l9.9,24.6h-9.6l-6.1-14.8l-6.1,14.8h-9.2l9.7-24.6l-9.3-23.1h9.6l5.3,13.1l5.5-13.1
			L169.6,12.7 M170.9,11.9h-1.2h-9.2h-0.6l-0.2,0.5L155,23.6l-4.5-11.2l-0.2-0.5h-0.6h-9.6h-1.3l0.5,1.2l9.1,22.8l-9.6,24.2
			l-0.5,1.2h1.2h9.2h0.6l0.2-0.5l5.3-12.9l5.3,12.9l0.2,0.5h0.6h9.6h1.3l-0.5-1.2l-9.8-24.3l8.8-22.7L170.9,11.9L170.9,11.9z"/>
	</g>
	<g>
		<path class="st2" d="M100.2,2.3v58.1H89.9V2.3H100.2 M101.1,1.5h-0.8H89.9H89v0.8v58.1v0.8h0.8h10.4h0.8v-0.8V2.3V1.5L101.1,1.5z"
			/>
	</g>
	<g>
		<path class="st2" d="M125.4,12.7h10.4V46h0c-0.2,8.4-7.1,15.2-15.5,15.2c-8.4,0-15.4-6.8-15.5-15.2h0V12.7H115V50h10.4V12.7
			 M124.6,11.9v0.9v36.5h-8.7V12.7v-0.9h-0.8h-10.4h-0.8v0.9V46v0.8h0.1c0.6,8.5,7.8,15.2,16.3,15.2s15.7-6.8,16.3-15.2h0l0-0.8
			V12.7v-0.9h-0.9h-10.4L124.6,11.9L124.6,11.9z"/>
	</g>
</g>
</svg>
